<svg width="46" height="46" viewBox="0 0 46 46" version="1.1" xmlns="http://www.w3.org/2000/svg" xmlns:xlink="http://www.w3.org/1999/xlink">
<title>Group 5</title>
<desc>Created using Figma</desc>
<g id="Canvas" transform="translate(2469 2035)">
<g id="Group 5">
<g id="Ellipse">
<use xlink:href="#path0_fill" transform="translate(-2469 -2035)" fill="#796EC6"/>
</g>
<g id="R">
<use xlink:href="#path1_fill" transform="translate(-2454 -2028)" fill="#FFFFFF"/>
</g>
</g>
</g>
<defs>
<path id="path0_fill" d="M 46 23C 46 35.7025 35.7025 46 23 46C 10.2975 46 0 35.7025 0 23C 0 10.2975 10.2975 0 23 0C 35.7025 0 46 10.2975 46 23Z"/>
<path id="path1_fill" d="M 9.14648 18.7129L 5.87891 18.7129L 5.87891 26L 1.77734 26L 1.77734 6.09375L 9.17383 6.09375C 11.5254 6.09375 13.3392 6.61784 14.6152 7.66602C 15.8913 8.71419 16.5293 10.1953 16.5293 12.1094C 16.5293 13.4674 16.2331 14.6022 15.6406 15.5137C 15.0573 16.416 14.1686 17.1361 12.9746 17.6738L 17.2812 25.8086L 17.2812 26L 12.8789 26L 9.14648 18.7129ZM 5.87891 15.3906L 9.1875 15.3906C 10.2174 15.3906 11.015 15.1309 11.5801 14.6113C 12.1452 14.0827 12.4277 13.3581 12.4277 12.4375C 12.4277 11.4987 12.1589 10.7604 11.6211 10.2227C 11.0924 9.6849 10.2767 9.41602 9.17383 9.41602L 5.87891 9.41602L 5.87891 15.3906Z"/>
</defs>
</svg>
